<svg xmlns="http://www.w3.org/2000/svg" width="20" height="20" viewBox="0 0 20 20">
  <path id="icon" d="M20,2.5v9.167H18.333v-5A4.172,4.172,0,0,0,14.167,2.5h-7.5A2.5,2.5,0,0,1,9.167,0H17.5A2.5,2.5,0,0,1,20,2.5ZM14.167,4.167H5.833a2.5,2.5,0,0,0-2.5,2.5h7.5A4.172,4.172,0,0,1,15,10.833v5h1.667V6.667A2.5,2.5,0,0,0,14.167,4.167Zm-.833,6.667V20H0V10.833a2.5,2.5,0,0,1,2.5-2.5h8.333A2.5,2.5,0,0,1,13.333,10.833ZM2.5,11.667a.833.833,0,1,0,.833-.833A.833.833,0,0,0,2.5,11.667Zm9.167-1.422L8.333,13.577,6.711,11.954,1.667,16.278v2.194l4.956-4.25,1.711,1.713L11.667,12.6Z" fill="#1da1f2"/>
</svg>
