<svg id="Group_36" data-name="Group 36" xmlns="http://www.w3.org/2000/svg" width="20" height="20" viewBox="0 0 20 20">
  <path id="Path_7" data-name="Path 7" d="M15.814,2.5,14.637.973A2.519,2.519,0,0,0,12.656,0H9.436a2.519,2.519,0,0,0-1.98.973L6.279,2.5Z" transform="translate(-1.046)" fill="#fff"/>
  <circle id="Ellipse_4" data-name="Ellipse 4" cx="3.333" cy="3.333" r="3.333" transform="translate(6.667 8.333)" fill="#fff"/>
  <path id="Path_8" data-name="Path 8" d="M15.833,5H4.167A4.172,4.172,0,0,0,0,9.167v7.5a4.172,4.172,0,0,0,4.167,4.167H15.833A4.172,4.172,0,0,0,20,16.667v-7.5A4.172,4.172,0,0,0,15.833,5ZM10,17.5a5,5,0,1,1,5-5,5,5,0,0,1-5,5Z" transform="translate(0 -0.833)" fill="#fff"/>
</svg>
