<svg xmlns="http://www.w3.org/2000/svg" width="20" height="20" viewBox="0 0 20 20">
  <path id="Path_21" data-name="Path 21" d="M16.667,0H3.333A3.333,3.333,0,0,0,0,3.333v10a3.333,3.333,0,0,0,3.333,3.333H3.75L7.459,19.8a.833.833,0,0,0,1.077,0l3.714-3.136h4.417A3.333,3.333,0,0,0,20,13.333v-10A3.333,3.333,0,0,0,16.667,0ZM5.833,4.167H10a.833.833,0,0,1,0,1.667H5.833a.833.833,0,0,1,0-1.667ZM14.167,12.5H5.833a.833.833,0,0,1,0-1.667h8.333a.833.833,0,1,1,0,1.667Zm0-3.333H5.833a.833.833,0,1,1,0-1.667h8.333a.833.833,0,1,1,0,1.667Z" fill="#fff"/>
</svg>
