<svg xmlns="http://www.w3.org/2000/svg" width="60" height="60" viewBox="0 0 60 60">
  <g id="Group_40" data-name="Group 40" transform="translate(-2703 -1958)">
    <rect id="Rectangle_12" data-name="Rectangle 12" width="60" height="60" rx="30" transform="translate(2703 1958)" fill="#1da1f2"/>
    <g id="Group_36" data-name="Group 36" transform="translate(2721 1976)">
      <path id="Path_7" data-name="Path 7" d="M17.721,3,16.308,1.168A3.023,3.023,0,0,0,13.932,0H10.068A3.023,3.023,0,0,0,7.692,1.168L6.279,3Z" fill="#fff"/>
      <circle id="Ellipse_4" data-name="Ellipse 4" cx="4" cy="4" r="4" transform="translate(8 10)" fill="#fff"/>
      <path id="Path_8" data-name="Path 8" d="M19,5H5a5.006,5.006,0,0,0-5,5v9a5.006,5.006,0,0,0,5,5H19a5.006,5.006,0,0,0,5-5V10a5.006,5.006,0,0,0-5-5ZM12,20a6,6,0,1,1,6-6,6,6,0,0,1-6,6Z" fill="#fff"/>
    </g>
  </g>
</svg>
