<svg xmlns="http://www.w3.org/2000/svg" width="21.338" height="14.656" viewBox="0 0 21.338 14.656">
  <path id="Path_38" data-name="Path 38" d="M878.938,481.65A2.938,2.938,0,0,0,876,484.588v8.787a2.931,2.931,0,0,0,2.931,2.931l11.727,0a2.932,2.932,0,0,0,2.931-2.929v-6.612a2.19,2.19,0,0,1,.684-1.591L897.2,482.4a.435.435,0,0,0-.3-.751Zm2.193,3.664h3.616a.765.765,0,0,1,.78.7.733.733,0,0,1-.732.766h-3.616a.765.765,0,0,1-.78-.7A.733.733,0,0,1,881.13,485.314Zm7.328,7.328h-7.281a.765.765,0,0,1-.78-.7.732.732,0,0,1,.733-.763h7.283a.763.763,0,0,1,.778.7A.733.733,0,0,1,888.459,492.642Zm0-2.931h-7.28a.765.765,0,0,1-.78-.7.733.733,0,0,1,.732-.766h7.28a.765.765,0,0,1,.78.7A.733.733,0,0,1,888.459,489.711Z" transform="translate(-876 -481.65)" fill="#fff"/>
</svg>
